<svg width="80" height="83" viewBox="0 0 80 83" fill="none" xmlns="http://www.w3.org/2000/svg">
<g id="?&#235;&#141;&#137;&#236;&#148;&#160;??1" clip-path="url(#clip0_649_1008)">
<path id="Vector" d="M48.926 66.3807L40.3353 65.1581L41.5579 56.5673C42.0212 53.3123 43.121 50.1803 44.7947 47.3503C46.4684 44.5203 48.6831 42.0476 51.3123 40.0735C53.9416 38.0994 56.9339 36.6625 60.1185 35.8449C63.3031 35.0272 66.6175 34.8448 69.8726 35.3081L78.4623 36.5305L77.2395 45.1223C76.3036 51.6958 72.795 57.6284 67.4852 61.6151C62.1755 65.6017 55.4996 67.316 48.926 66.3807Z" fill="white"/>
<path id="Vector_2" d="M52.5118 67.9066C51.2524 67.9063 49.9947 67.8169 48.748 67.6389L40.1571 66.4156C39.8213 66.3676 39.5182 66.1881 39.3147 65.9167C39.1111 65.6453 39.0236 65.3042 39.0714 64.9683L40.2936 56.3785C40.7807 52.957 41.9369 49.665 43.6963 46.6904C45.4557 43.7158 47.7838 41.1169 50.5476 39.042C53.3115 36.9672 56.4569 35.4571 59.8044 34.5979C63.1519 33.7388 66.6358 33.5474 70.0573 34.0347L78.6471 35.257C78.8136 35.2806 78.9738 35.3369 79.1185 35.4225C79.2632 35.5081 79.3897 35.6214 79.4906 35.7559C79.5915 35.8904 79.665 36.0435 79.7067 36.2064C79.7485 36.3693 79.7577 36.5388 79.7339 36.7053L78.5106 45.2951C77.6177 51.5593 74.4985 57.2923 69.724 61.4446C64.9495 65.5968 58.8392 67.8904 52.5118 67.9056V67.9066ZM41.7857 64.0671L49.1085 65.1091C62.0786 66.9553 74.1303 57.9069 75.9765 44.9389L77.0196 37.6151L69.7 36.5688C66.6108 36.1279 63.4649 36.2999 60.4422 37.075C57.4195 37.8501 54.5791 39.2131 52.0833 41.0862C49.5874 42.9593 47.485 45.3057 45.8962 47.9914C44.3074 50.6772 43.2632 53.6496 42.8234 56.739L41.7857 64.0671Z" fill="#1AAB0E"/>
<path id="Vector_3" d="M40.3396 66.4295C40.0708 66.4299 39.8087 66.3457 39.5904 66.1888C39.3722 66.032 39.2088 65.8103 39.1236 65.5554C39.0384 65.3004 39.0356 65.0252 39.1157 64.7686C39.1957 64.512 39.3545 64.2871 39.5695 64.1258L66.766 43.7049C66.9005 43.6041 67.0535 43.5307 67.2163 43.489C67.3791 43.4473 67.5486 43.4381 67.7149 43.4618C67.8813 43.4856 68.0414 43.5419 68.186 43.6275C68.3306 43.7132 68.457 43.8265 68.5578 43.9609C68.6587 44.0954 68.732 44.2484 68.7737 44.4112C68.8155 44.574 68.8247 44.7434 68.8009 44.9098C68.7771 45.0762 68.7209 45.2363 68.6352 45.3809C68.5496 45.5255 68.4363 45.6518 68.3019 45.7527L41.1054 66.1725C40.8845 66.3385 40.6159 66.4287 40.3396 66.4295Z" fill="#1AAB0E"/>
<path id="Vector_4" d="M2.20996 36.5302L10.8007 35.3075C17.3743 34.3723 24.0502 36.0865 29.3599 40.0732C34.6697 44.0598 38.1784 49.9924 39.1142 56.5659L40.3368 65.1566L31.7461 66.3793C25.1725 67.3146 18.4966 65.6003 13.1869 61.6137C7.87712 57.627 4.36844 51.6944 3.4326 45.1209L2.20996 36.5302Z" fill="white"/>
<path id="Vector_5" d="M28.1646 67.9066C21.8372 67.8915 15.7269 65.5979 10.9524 61.4456C6.17787 57.2934 3.05868 51.5604 2.16583 45.2962L0.943584 36.7064C0.91976 36.54 0.928948 36.3705 0.970619 36.2077C1.01229 36.0448 1.08563 35.8918 1.18645 35.7573C1.28727 35.6228 1.4136 35.5095 1.55822 35.4238C1.70284 35.3382 1.86291 35.2818 2.02931 35.258L10.6202 34.0358C14.0416 33.5485 17.5254 33.7399 20.8728 34.599C24.2203 35.4582 27.3657 36.9683 30.1294 39.0432C32.8932 41.118 35.2211 43.7169 36.9804 46.6915C38.7397 49.6661 39.8958 52.9582 40.3828 56.3796L41.6061 64.9694C41.6539 65.3054 41.5662 65.6467 41.3624 65.9181C41.1586 66.1895 40.8553 66.3689 40.5193 66.4167L31.9284 67.6421C30.6816 67.819 29.4239 67.9074 28.1646 67.9066ZM3.6579 37.6108L4.6999 44.9347C6.54606 57.9026 18.5989 66.951 31.5679 65.1049L38.8907 64.0629L37.8487 56.739C35.9983 43.7711 23.9465 34.7216 10.9807 36.5688L3.6579 37.6108Z" fill="#1AAB0E"/>
<path id="Vector_6" d="M40.3374 66.4295C40.0604 66.4292 39.791 66.339 39.5695 66.1725L12.3731 45.7527C12.2386 45.6518 12.1253 45.5254 12.0397 45.3807C11.9541 45.236 11.8979 45.0759 11.8741 44.9094C11.8262 44.5733 11.9138 44.2319 12.1176 43.9604C12.3214 43.6888 12.6247 43.5094 12.9609 43.4615C13.297 43.4136 13.6384 43.5012 13.9099 43.705L41.1064 64.1226C41.3214 64.2838 41.4802 64.5086 41.5602 64.7651C41.6403 65.0216 41.6376 65.2968 41.5525 65.5517C41.4674 65.8066 41.3043 66.0282 41.0862 66.1852C40.8681 66.3422 40.6062 66.4265 40.3374 66.4263V66.4295Z" fill="#1AAB0E"/>
<path id="Vector_7" d="M40.3384 82.3155C39.999 82.3155 39.6735 82.1806 39.4335 81.9406C39.1934 81.7006 39.0586 81.3751 39.0586 81.0356V29.2471C39.0586 28.9077 39.1934 28.5821 39.4335 28.3421C39.6735 28.1021 39.999 27.9673 40.3384 27.9673C40.6779 27.9673 41.0034 28.1021 41.2434 28.3421C41.4834 28.5821 41.6183 28.9077 41.6183 29.2471V81.0356C41.6183 81.3751 41.4834 81.7006 41.2434 81.9406C41.0034 82.1806 40.6779 82.3155 40.3384 82.3155Z" fill="#1AAB0E"/>
<path id="Vector_8" d="M40.1924 1.35114L45.0449 6.10142C48.7587 9.73693 50.8761 14.6988 50.9314 19.8955C50.9868 25.0922 48.9754 30.0981 45.3399 33.8119L40.5897 38.6644L35.7371 33.9141C32.0234 30.2786 29.9059 25.3167 29.8506 20.12C29.7953 14.9233 31.8066 9.91741 35.4421 6.20366L40.1924 1.35114Z" fill="white"/>
<path id="Vector_9" d="M40.5924 39.9422C40.2576 39.9427 39.9361 39.8113 39.6976 39.5764L34.8448 34.8261C32.8854 32.9089 31.3228 30.6246 30.2462 28.1034C29.1697 25.5823 28.6003 22.8738 28.5706 20.1326C28.5409 17.3915 29.0514 14.6713 30.0731 12.1274C31.0947 9.58355 32.6074 7.26585 34.5249 5.30667L39.2795 0.450764C39.3971 0.330182 39.5374 0.234009 39.6923 0.16776C39.8472 0.101512 40.0136 0.0664915 40.182 0.064708C40.3505 0.0629244 40.5176 0.0944127 40.6739 0.157367C40.8301 0.220321 40.9724 0.313502 41.0926 0.431567L45.9464 5.18189C47.9057 7.09921 49.4683 9.38369 50.5448 11.9049C51.6212 14.4261 52.1906 17.1346 52.2203 19.8759C52.25 22.6171 51.7395 25.3373 50.7179 27.8813C49.6963 30.4252 48.1837 32.743 46.2663 34.7024L41.516 39.5551C41.3962 39.6787 41.2526 39.7768 41.0939 39.8433C40.9351 39.9099 40.7645 39.9435 40.5924 39.9422ZM40.2138 3.15868L36.3583 7.09738C29.2936 14.3135 29.4183 25.9323 36.6345 32.997L40.5732 36.8525L44.4287 32.9138C46.1112 31.1951 47.4387 29.1618 48.3354 26.9301C49.232 24.6983 49.6804 22.3118 49.6547 19.9068C49.6291 17.5018 49.1299 15.1254 48.1859 12.9132C47.2418 10.7011 45.8712 8.69662 44.1524 7.01419L40.2138 3.15868Z" fill="#1AAB0E"/>
<path id="Vector_10" d="M40.5929 39.9422C40.2558 39.9423 39.9324 39.8093 39.6928 39.5723C39.4532 39.3353 39.3167 39.0133 39.313 38.6763L39.0294 12.0568C39.0259 11.7175 39.1574 11.3908 39.3948 11.1484C39.6322 10.906 39.9561 10.7678 40.2953 10.7641H40.3092C40.6462 10.7641 40.9697 10.897 41.2093 11.1341C41.4489 11.3711 41.5854 11.6931 41.589 12.0301L41.8727 38.6485C41.8745 38.8166 41.8433 38.9834 41.7806 39.1394C41.718 39.2954 41.6253 39.4375 41.5077 39.5576C41.3901 39.6777 41.2501 39.7735 41.0955 39.8395C40.9409 39.9055 40.7748 39.9404 40.6067 39.9422H40.5929Z" fill="#1AAB0E"/>
</g>
<defs>
<clipPath id="clip0_649_1008">
<rect width="78.8165" height="82.2465" fill="white" transform="translate(0.930664 0.0689697)"/>
</clipPath>
</defs>
</svg>
